<svg xmlns="http://www.w3.org/2000/svg" viewBox="0 0 512 512" width="512" height="512">
  <defs>
    <linearGradient id="bg" x1="0%" y1="0%" x2="100%" y2="100%">
      <stop offset="0%" stop-color="#1a1a1a"/>
      <stop offset="100%" stop-color="#000000"/>
    </linearGradient>
    <linearGradient id="accent" x1="0%" y1="0%" x2="100%" y2="100%">
      <stop offset="0%" stop-color="#ff4757"/>
      <stop offset="100%" stop-color="#c1121f"/>
    </linearGradient>
  </defs>

  <rect width="512" height="512" rx="80" fill="url(#bg)"/>

  <g transform="translate(256 210)">
    <path d="M -90 -30 Q -110 -90 -70 -110 Q -40 -120 -20 -90 L 0 -100 L 20 -90 Q 40 -120 70 -110 Q 110 -90 90 -30 Q 100 10 70 40 Q 40 70 0 70 Q -40 70 -70 40 Q -100 10 -90 -30 Z"
          fill="url(#accent)"/>
    <path d="M -55 -60 L -35 -80 L -25 -55 Z M 55 -60 L 35 -80 L 25 -55 Z"
          fill="#000"/>
    <ellipse cx="-35" cy="-10" rx="10" ry="14" fill="#fff"/>
    <ellipse cx="35" cy="-10" rx="10" ry="14" fill="#fff"/>
    <circle cx="-35" cy="-8" r="5" fill="#000"/>
    <circle cx="35" cy="-8" r="5" fill="#000"/>
    <path d="M -15 20 Q 0 30 15 20 L 10 35 Q 0 40 -10 35 Z" fill="#000"/>
    <path d="M -100 -20 L -130 -30 M -100 -5 L -135 -5 M -100 10 L -130 20
             M 100 -20 L 130 -30 M 100 -5 L 135 -5 M 100 10 L 130 20"
          stroke="#fff" stroke-width="3" stroke-linecap="round" fill="none" opacity="0.7"/>
  </g>

  <text x="256" y="380" font-family="Impact, Arial Black, sans-serif"
        font-size="64" font-weight="900" fill="#ffffff"
        text-anchor="middle" letter-spacing="2">JOTATIGER</text>

  <text x="256" y="435" font-family="Arial, sans-serif"
        font-size="34" font-weight="700" fill="url(#accent)"
        text-anchor="middle" letter-spacing="8">.FIT</text>

  <rect x="106" y="455" width="300" height="3" fill="url(#accent)"/>
</svg>
